<mxfile host="app.diagrams.net" modified="2023-07-21T11:03:41.620Z" agent="Mozilla/5.0 (Macintosh; Intel Mac OS X 10_15_7) AppleWebKit/537.36 (KHTML, like Gecko) Chrome/114.0.0.0 Safari/537.36 Edg/114.0.1823.82" etag="mMq2rKbmfVAdEv-AmHqS" version="21.5.2" type="github" pages="2">
  <diagram id="NBLPQz6HrpRqBc9m8qpC" name="Page-1">
    <mxGraphModel dx="3808" dy="842" grid="1" gridSize="10" guides="1" tooltips="1" connect="1" arrows="1" fold="1" page="1" pageScale="1" pageWidth="850" pageHeight="1100" math="0" shadow="0">
      <root>
        <mxCell id="0" />
        <mxCell id="1" parent="0" />
        <mxCell id="om673MOu-7WY-k-pcmnC-1" value="Doanh nghiệp" style="rounded=0;whiteSpace=wrap;html=1;" parent="1" vertex="1">
          <mxGeometry x="80" y="240" width="80" height="40" as="geometry" />
        </mxCell>
        <mxCell id="om673MOu-7WY-k-pcmnC-2" value="Tên &lt;br&gt;doanh nghiệp" style="ellipse;whiteSpace=wrap;html=1;" parent="1" vertex="1">
          <mxGeometry x="-62.5" y="120" width="90" height="60" as="geometry" />
        </mxCell>
        <mxCell id="om673MOu-7WY-k-pcmnC-3" value="Website" style="ellipse;whiteSpace=wrap;html=1;" parent="1" vertex="1">
          <mxGeometry y="70" width="75" height="50" as="geometry" />
        </mxCell>
        <mxCell id="om673MOu-7WY-k-pcmnC-4" value="&lt;u&gt;Mã&lt;br&gt;doanh nghiệp&lt;/u&gt;" style="ellipse;whiteSpace=wrap;html=1;" parent="1" vertex="1">
          <mxGeometry x="-100" y="190" width="90" height="60" as="geometry" />
        </mxCell>
        <mxCell id="om673MOu-7WY-k-pcmnC-5" value="Địa chỉ" style="ellipse;whiteSpace=wrap;html=1;" parent="1" vertex="1">
          <mxGeometry x="-92.5" y="265" width="75" height="50" as="geometry" />
        </mxCell>
        <mxCell id="om673MOu-7WY-k-pcmnC-7" value="Tên" style="ellipse;whiteSpace=wrap;html=1;" parent="1" vertex="1">
          <mxGeometry x="130" width="60" height="40" as="geometry" />
        </mxCell>
        <mxCell id="om673MOu-7WY-k-pcmnC-8" value="SĐT" style="ellipse;whiteSpace=wrap;html=1;" parent="1" vertex="1">
          <mxGeometry x="230" width="60" height="40" as="geometry" />
        </mxCell>
        <mxCell id="om673MOu-7WY-k-pcmnC-9" value="Mail" style="ellipse;whiteSpace=wrap;html=1;" parent="1" vertex="1">
          <mxGeometry x="335" width="60" height="40" as="geometry" />
        </mxCell>
        <mxCell id="om673MOu-7WY-k-pcmnC-11" value="" style="endArrow=none;html=1;rounded=0;" parent="1" target="om673MOu-7WY-k-pcmnC-7" edge="1">
          <mxGeometry width="50" height="50" relative="1" as="geometry">
            <mxPoint x="188.6363636363635" y="110" as="sourcePoint" />
            <mxPoint x="130" y="195" as="targetPoint" />
          </mxGeometry>
        </mxCell>
        <mxCell id="om673MOu-7WY-k-pcmnC-12" value="" style="endArrow=none;html=1;rounded=0;" parent="1" target="om673MOu-7WY-k-pcmnC-8" edge="1">
          <mxGeometry width="50" height="50" relative="1" as="geometry">
            <mxPoint x="206.81818181818198" y="110" as="sourcePoint" />
            <mxPoint x="130" y="100" as="targetPoint" />
          </mxGeometry>
        </mxCell>
        <mxCell id="om673MOu-7WY-k-pcmnC-13" value="" style="endArrow=none;html=1;rounded=0;" parent="1" target="om673MOu-7WY-k-pcmnC-9" edge="1">
          <mxGeometry width="50" height="50" relative="1" as="geometry">
            <mxPoint x="225.909090909091" y="110" as="sourcePoint" />
            <mxPoint x="196.95336161205614" y="132.80368799330222" as="targetPoint" />
          </mxGeometry>
        </mxCell>
        <mxCell id="om673MOu-7WY-k-pcmnC-14" value="" style="endArrow=none;html=1;rounded=0;" parent="1" source="om673MOu-7WY-k-pcmnC-2" target="om673MOu-7WY-k-pcmnC-1" edge="1">
          <mxGeometry width="50" height="50" relative="1" as="geometry">
            <mxPoint x="167.5" y="170" as="sourcePoint" />
            <mxPoint x="240" y="170" as="targetPoint" />
          </mxGeometry>
        </mxCell>
        <mxCell id="om673MOu-7WY-k-pcmnC-15" value="" style="endArrow=none;html=1;rounded=0;" parent="1" source="om673MOu-7WY-k-pcmnC-3" target="om673MOu-7WY-k-pcmnC-1" edge="1">
          <mxGeometry width="50" height="50" relative="1" as="geometry">
            <mxPoint x="32.55742329527743" y="216.52526624992208" as="sourcePoint" />
            <mxPoint x="70" y="233.33333333333337" as="targetPoint" />
          </mxGeometry>
        </mxCell>
        <mxCell id="om673MOu-7WY-k-pcmnC-16" value="" style="endArrow=none;html=1;rounded=0;" parent="1" source="om673MOu-7WY-k-pcmnC-4" target="om673MOu-7WY-k-pcmnC-1" edge="1">
          <mxGeometry width="50" height="50" relative="1" as="geometry">
            <mxPoint x="21.44762784538125" y="136.57403170513726" as="sourcePoint" />
            <mxPoint x="103.62068965517233" y="230" as="targetPoint" />
          </mxGeometry>
        </mxCell>
        <mxCell id="om673MOu-7WY-k-pcmnC-17" value="" style="endArrow=none;html=1;rounded=0;" parent="1" source="om673MOu-7WY-k-pcmnC-5" target="om673MOu-7WY-k-pcmnC-1" edge="1">
          <mxGeometry width="50" height="50" relative="1" as="geometry">
            <mxPoint x="-20.0996678964525" y="268.00442968428683" as="sourcePoint" />
            <mxPoint x="70" y="263.0769230769231" as="targetPoint" />
          </mxGeometry>
        </mxCell>
        <mxCell id="om673MOu-7WY-k-pcmnC-18" value="Người dùng" style="rounded=0;whiteSpace=wrap;html=1;" parent="1" vertex="1">
          <mxGeometry x="385" y="240" width="80" height="40" as="geometry" />
        </mxCell>
        <mxCell id="om673MOu-7WY-k-pcmnC-19" value="&lt;u&gt;User name&lt;/u&gt;" style="ellipse;whiteSpace=wrap;html=1;" parent="1" vertex="1">
          <mxGeometry x="395" y="130" width="60" height="40" as="geometry" />
        </mxCell>
        <mxCell id="om673MOu-7WY-k-pcmnC-20" value="Password" style="ellipse;whiteSpace=wrap;html=1;" parent="1" vertex="1">
          <mxGeometry x="470" y="120" width="75" height="50" as="geometry" />
        </mxCell>
        <mxCell id="om673MOu-7WY-k-pcmnC-21" value="Họ và tên" style="ellipse;whiteSpace=wrap;html=1;" parent="1" vertex="1">
          <mxGeometry x="490" y="210" width="60" height="40" as="geometry" />
        </mxCell>
        <mxCell id="om673MOu-7WY-k-pcmnC-22" value="SĐT" style="ellipse;whiteSpace=wrap;html=1;" parent="1" vertex="1">
          <mxGeometry x="500" y="280" width="75" height="50" as="geometry" />
        </mxCell>
        <mxCell id="om673MOu-7WY-k-pcmnC-23" value="Email" style="ellipse;whiteSpace=wrap;html=1;" parent="1" vertex="1">
          <mxGeometry x="460" y="340" width="75" height="50" as="geometry" />
        </mxCell>
        <mxCell id="om673MOu-7WY-k-pcmnC-24" value="Phân công" style="rhombus;whiteSpace=wrap;html=1;" parent="1" vertex="1">
          <mxGeometry x="230" y="235" width="80" height="50" as="geometry" />
        </mxCell>
        <mxCell id="om673MOu-7WY-k-pcmnC-25" value="" style="endArrow=none;html=1;rounded=0;" parent="1" source="om673MOu-7WY-k-pcmnC-1" target="om673MOu-7WY-k-pcmnC-24" edge="1">
          <mxGeometry width="50" height="50" relative="1" as="geometry">
            <mxPoint x="230" y="290" as="sourcePoint" />
            <mxPoint x="280" y="240" as="targetPoint" />
          </mxGeometry>
        </mxCell>
        <mxCell id="om673MOu-7WY-k-pcmnC-26" value="" style="endArrow=none;html=1;rounded=0;" parent="1" source="om673MOu-7WY-k-pcmnC-24" target="om673MOu-7WY-k-pcmnC-18" edge="1">
          <mxGeometry width="50" height="50" relative="1" as="geometry">
            <mxPoint x="170" y="271.33333333333337" as="sourcePoint" />
            <mxPoint x="242.02531645569616" y="273.7341772151899" as="targetPoint" />
          </mxGeometry>
        </mxCell>
        <mxCell id="om673MOu-7WY-k-pcmnC-28" value="1" style="text;html=1;align=center;verticalAlign=middle;resizable=0;points=[];autosize=1;strokeColor=none;fillColor=none;" parent="1" vertex="1">
          <mxGeometry x="155" y="235" width="30" height="30" as="geometry" />
        </mxCell>
        <mxCell id="om673MOu-7WY-k-pcmnC-29" value="n" style="text;html=1;align=center;verticalAlign=middle;resizable=0;points=[];autosize=1;strokeColor=none;fillColor=none;" parent="1" vertex="1">
          <mxGeometry x="350" y="235" width="30" height="30" as="geometry" />
        </mxCell>
        <mxCell id="om673MOu-7WY-k-pcmnC-30" value="" style="endArrow=none;html=1;rounded=0;" parent="1" source="om673MOu-7WY-k-pcmnC-18" target="om673MOu-7WY-k-pcmnC-19" edge="1">
          <mxGeometry width="50" height="50" relative="1" as="geometry">
            <mxPoint x="230" y="290" as="sourcePoint" />
            <mxPoint x="280" y="240" as="targetPoint" />
          </mxGeometry>
        </mxCell>
        <mxCell id="om673MOu-7WY-k-pcmnC-31" value="" style="endArrow=none;html=1;rounded=0;" parent="1" source="om673MOu-7WY-k-pcmnC-18" target="om673MOu-7WY-k-pcmnC-20" edge="1">
          <mxGeometry width="50" height="50" relative="1" as="geometry">
            <mxPoint x="426.3636363636365" y="250" as="sourcePoint" />
            <mxPoint x="413.6099410255774" y="179.85467564067585" as="targetPoint" />
          </mxGeometry>
        </mxCell>
        <mxCell id="om673MOu-7WY-k-pcmnC-32" value="" style="endArrow=none;html=1;rounded=0;" parent="1" source="om673MOu-7WY-k-pcmnC-18" target="om673MOu-7WY-k-pcmnC-21" edge="1">
          <mxGeometry width="50" height="50" relative="1" as="geometry">
            <mxPoint x="445.2383349345696" y="250" as="sourcePoint" />
            <mxPoint x="500.6131300914203" y="177.32172459180083" as="targetPoint" />
          </mxGeometry>
        </mxCell>
        <mxCell id="om673MOu-7WY-k-pcmnC-34" value="" style="endArrow=none;html=1;rounded=0;" parent="1" source="om673MOu-7WY-k-pcmnC-18" target="om673MOu-7WY-k-pcmnC-22" edge="1">
          <mxGeometry width="50" height="50" relative="1" as="geometry">
            <mxPoint x="470" y="258" as="sourcePoint" />
            <mxPoint x="502.64235484474693" y="248.207293546576" as="targetPoint" />
          </mxGeometry>
        </mxCell>
        <mxCell id="om673MOu-7WY-k-pcmnC-35" value="" style="endArrow=none;html=1;rounded=0;" parent="1" source="om673MOu-7WY-k-pcmnC-18" target="om673MOu-7WY-k-pcmnC-23" edge="1">
          <mxGeometry width="50" height="50" relative="1" as="geometry">
            <mxPoint x="470" y="285.294136850354" as="sourcePoint" />
            <mxPoint x="515.0180405231904" y="302.5069386627655" as="targetPoint" />
          </mxGeometry>
        </mxCell>
        <mxCell id="om673MOu-7WY-k-pcmnC-36" value="Sự kiện" style="rounded=0;whiteSpace=wrap;html=1;" parent="1" vertex="1">
          <mxGeometry x="3.75" y="587.5" width="60" height="30" as="geometry" />
        </mxCell>
        <mxCell id="om673MOu-7WY-k-pcmnC-37" value="Tên sự kiện" style="ellipse;whiteSpace=wrap;html=1;" parent="1" vertex="1">
          <mxGeometry x="-100" y="540" width="60" height="40" as="geometry" />
        </mxCell>
        <mxCell id="om673MOu-7WY-k-pcmnC-38" value="&lt;u&gt;Mã sự kiện&lt;/u&gt;" style="ellipse;whiteSpace=wrap;html=1;" parent="1" vertex="1">
          <mxGeometry x="-137.5" y="617.5" width="75" height="50" as="geometry" />
        </mxCell>
        <mxCell id="om673MOu-7WY-k-pcmnC-40" value="Ghi chú&lt;span style=&quot;white-space: pre;&quot;&gt;&#x9;&lt;/span&gt;" style="ellipse;whiteSpace=wrap;html=1;" parent="1" vertex="1">
          <mxGeometry x="-70" y="692.5" width="60" height="40" as="geometry" />
        </mxCell>
        <mxCell id="om673MOu-7WY-k-pcmnC-41" value="Thời gian bắt đầu" style="ellipse;whiteSpace=wrap;html=1;" parent="1" vertex="1">
          <mxGeometry x="-10" y="740" width="90" height="60" as="geometry" />
        </mxCell>
        <mxCell id="om673MOu-7WY-k-pcmnC-42" value="Thời gian kết thúc" style="ellipse;whiteSpace=wrap;html=1;" parent="1" vertex="1">
          <mxGeometry x="88.75" y="702.5" width="90" height="60" as="geometry" />
        </mxCell>
        <mxCell id="om673MOu-7WY-k-pcmnC-44" value="" style="endArrow=none;html=1;rounded=0;" parent="1" source="om673MOu-7WY-k-pcmnC-37" target="om673MOu-7WY-k-pcmnC-36" edge="1">
          <mxGeometry width="50" height="50" relative="1" as="geometry">
            <mxPoint x="-63.30036334679676" y="599.7669055298329" as="sourcePoint" />
            <mxPoint x="8.75" y="619.4230769230769" as="targetPoint" />
          </mxGeometry>
        </mxCell>
        <mxCell id="om673MOu-7WY-k-pcmnC-45" value="" style="endArrow=none;html=1;rounded=0;" parent="1" source="om673MOu-7WY-k-pcmnC-38" target="om673MOu-7WY-k-pcmnC-36" edge="1">
          <mxGeometry width="50" height="50" relative="1" as="geometry">
            <mxPoint x="-70.69258531129708" y="655.4200916206078" as="sourcePoint" />
            <mxPoint x="8.75" y="635.1363636363637" as="targetPoint" />
          </mxGeometry>
        </mxCell>
        <mxCell id="om673MOu-7WY-k-pcmnC-46" value="" style="endArrow=none;html=1;rounded=0;" parent="1" source="om673MOu-7WY-k-pcmnC-40" target="om673MOu-7WY-k-pcmnC-36" edge="1">
          <mxGeometry width="50" height="50" relative="1" as="geometry">
            <mxPoint x="-41.143759155529324" y="697.5533169019379" as="sourcePoint" />
            <mxPoint x="21.666666666666742" y="642.5" as="targetPoint" />
          </mxGeometry>
        </mxCell>
        <mxCell id="om673MOu-7WY-k-pcmnC-47" value="" style="endArrow=none;html=1;rounded=0;" parent="1" source="om673MOu-7WY-k-pcmnC-41" target="om673MOu-7WY-k-pcmnC-36" edge="1">
          <mxGeometry width="50" height="50" relative="1" as="geometry">
            <mxPoint x="8.131093641057078" y="762.714415814582" as="sourcePoint" />
            <mxPoint x="35.36290322580635" y="642.5" as="targetPoint" />
          </mxGeometry>
        </mxCell>
        <mxCell id="om673MOu-7WY-k-pcmnC-48" value="" style="endArrow=none;html=1;rounded=0;" parent="1" source="om673MOu-7WY-k-pcmnC-42" target="om673MOu-7WY-k-pcmnC-36" edge="1">
          <mxGeometry width="50" height="50" relative="1" as="geometry">
            <mxPoint x="83.98812939816071" y="763.2143881944821" as="sourcePoint" />
            <mxPoint x="43.75" y="642.5" as="targetPoint" />
          </mxGeometry>
        </mxCell>
        <mxCell id="om673MOu-7WY-k-pcmnC-49" value="Đặt POC" style="rhombus;whiteSpace=wrap;html=1;" parent="1" vertex="1">
          <mxGeometry x="128.75" y="577.5" width="80" height="50" as="geometry" />
        </mxCell>
        <mxCell id="om673MOu-7WY-k-pcmnC-50" value="" style="endArrow=none;html=1;rounded=0;" parent="1" source="om673MOu-7WY-k-pcmnC-36" target="om673MOu-7WY-k-pcmnC-49" edge="1">
          <mxGeometry width="50" height="50" relative="1" as="geometry">
            <mxPoint x="138.75" y="572.5" as="sourcePoint" />
            <mxPoint x="188.75" y="522.5" as="targetPoint" />
          </mxGeometry>
        </mxCell>
        <mxCell id="om673MOu-7WY-k-pcmnC-53" value="n" style="text;html=1;align=center;verticalAlign=middle;resizable=0;points=[];autosize=1;strokeColor=none;fillColor=none;" parent="1" vertex="1">
          <mxGeometry x="370" y="612.5" width="30" height="30" as="geometry" />
        </mxCell>
        <mxCell id="om673MOu-7WY-k-pcmnC-54" value="" style="endArrow=none;html=1;rounded=0;" parent="1" source="om673MOu-7WY-k-pcmnC-56" target="om673MOu-7WY-k-pcmnC-49" edge="1">
          <mxGeometry width="50" height="50" relative="1" as="geometry">
            <mxPoint x="230" y="490" as="sourcePoint" />
            <mxPoint x="280" y="440" as="targetPoint" />
          </mxGeometry>
        </mxCell>
        <mxCell id="om673MOu-7WY-k-pcmnC-55" value="&lt;u&gt;Mã POC&lt;/u&gt;" style="ellipse;whiteSpace=wrap;html=1;" parent="1" vertex="1">
          <mxGeometry x="260" y="652.5" width="60" height="40" as="geometry" />
        </mxCell>
        <mxCell id="om673MOu-7WY-k-pcmnC-56" value="POC" style="rounded=0;whiteSpace=wrap;html=1;" parent="1" vertex="1">
          <mxGeometry x="395" y="587.5" width="60" height="30" as="geometry" />
        </mxCell>
        <mxCell id="om673MOu-7WY-k-pcmnC-57" value="" style="endArrow=none;html=1;rounded=0;" parent="1" source="om673MOu-7WY-k-pcmnC-55" target="om673MOu-7WY-k-pcmnC-56" edge="1">
          <mxGeometry width="50" height="50" relative="1" as="geometry">
            <mxPoint x="370" y="602.5" as="sourcePoint" />
            <mxPoint x="420" y="552.5" as="targetPoint" />
          </mxGeometry>
        </mxCell>
        <mxCell id="om673MOu-7WY-k-pcmnC-58" value="Checkin" style="rhombus;whiteSpace=wrap;html=1;" parent="1" vertex="1">
          <mxGeometry x="590" y="582.5" width="80" height="40" as="geometry" />
        </mxCell>
        <mxCell id="om673MOu-7WY-k-pcmnC-59" value="Khách checkin" style="rounded=0;whiteSpace=wrap;html=1;" parent="1" vertex="1">
          <mxGeometry x="720" y="585" width="70" height="35" as="geometry" />
        </mxCell>
        <mxCell id="om673MOu-7WY-k-pcmnC-60" value="Mã định danh" style="ellipse;whiteSpace=wrap;html=1;fontStyle=4" parent="1" vertex="1">
          <mxGeometry x="775" y="512.5" width="60" height="40" as="geometry" />
        </mxCell>
        <mxCell id="om673MOu-7WY-k-pcmnC-61" value="Họ và tên" style="ellipse;whiteSpace=wrap;html=1;" parent="1" vertex="1">
          <mxGeometry x="652.5" y="517.5" width="67.5" height="45" as="geometry" />
        </mxCell>
        <mxCell id="om673MOu-7WY-k-pcmnC-64" value="Thời gian checkin" style="ellipse;whiteSpace=wrap;html=1;" parent="1" vertex="1">
          <mxGeometry x="550" y="652.5" width="90" height="60" as="geometry" />
        </mxCell>
        <mxCell id="om673MOu-7WY-k-pcmnC-65" value="" style="endArrow=none;html=1;rounded=0;" parent="1" source="om673MOu-7WY-k-pcmnC-64" target="om673MOu-7WY-k-pcmnC-58" edge="1">
          <mxGeometry width="50" height="50" relative="1" as="geometry">
            <mxPoint x="435" y="622.5" as="sourcePoint" />
            <mxPoint x="485" y="572.5" as="targetPoint" />
          </mxGeometry>
        </mxCell>
        <mxCell id="om673MOu-7WY-k-pcmnC-66" value="" style="endArrow=none;html=1;rounded=0;startArrow=none;" parent="1" source="om673MOu-7WY-k-pcmnC-56" target="om673MOu-7WY-k-pcmnC-58" edge="1">
          <mxGeometry width="50" height="50" relative="1" as="geometry">
            <mxPoint x="240" y="612.5" as="sourcePoint" />
            <mxPoint x="290" y="562.5" as="targetPoint" />
          </mxGeometry>
        </mxCell>
        <mxCell id="om673MOu-7WY-k-pcmnC-67" value="" style="endArrow=none;html=1;rounded=0;" parent="1" source="om673MOu-7WY-k-pcmnC-58" target="om673MOu-7WY-k-pcmnC-59" edge="1">
          <mxGeometry width="50" height="50" relative="1" as="geometry">
            <mxPoint x="530" y="621.4285714285713" as="sourcePoint" />
            <mxPoint x="602.666666666667" y="618.8333333333333" as="targetPoint" />
          </mxGeometry>
        </mxCell>
        <mxCell id="om673MOu-7WY-k-pcmnC-68" value="" style="endArrow=none;html=1;rounded=0;" parent="1" source="om673MOu-7WY-k-pcmnC-60" target="om673MOu-7WY-k-pcmnC-59" edge="1">
          <mxGeometry width="50" height="50" relative="1" as="geometry">
            <mxPoint x="680" y="622.5" as="sourcePoint" />
            <mxPoint x="735" y="622.5" as="targetPoint" />
          </mxGeometry>
        </mxCell>
        <mxCell id="om673MOu-7WY-k-pcmnC-69" value="" style="endArrow=none;html=1;rounded=0;" parent="1" source="om673MOu-7WY-k-pcmnC-61" target="om673MOu-7WY-k-pcmnC-59" edge="1">
          <mxGeometry width="50" height="50" relative="1" as="geometry">
            <mxPoint x="789.0809490273227" y="682.8931436530061" as="sourcePoint" />
            <mxPoint x="775.46875" y="640" as="targetPoint" />
          </mxGeometry>
        </mxCell>
        <mxCell id="om673MOu-7WY-k-pcmnC-71" value="n" style="text;html=1;align=center;verticalAlign=middle;resizable=0;points=[];autosize=1;strokeColor=none;fillColor=none;" parent="1" vertex="1">
          <mxGeometry x="690" y="587.5" width="30" height="30" as="geometry" />
        </mxCell>
        <mxCell id="om673MOu-7WY-k-pcmnC-72" value="1" style="text;html=1;align=center;verticalAlign=middle;resizable=0;points=[];autosize=1;strokeColor=none;fillColor=none;" parent="1" vertex="1">
          <mxGeometry x="58.75" y="580" width="30" height="30" as="geometry" />
        </mxCell>
        <mxCell id="om673MOu-7WY-k-pcmnC-73" value="Phụ trách" style="rhombus;whiteSpace=wrap;html=1;" parent="1" vertex="1">
          <mxGeometry x="385" y="407.5" width="80" height="50" as="geometry" />
        </mxCell>
        <mxCell id="om673MOu-7WY-k-pcmnC-74" value="Ghi chú" style="ellipse;whiteSpace=wrap;html=1;" parent="1" vertex="1">
          <mxGeometry x="652.5" y="662.5" width="60" height="40" as="geometry" />
        </mxCell>
        <mxCell id="om673MOu-7WY-k-pcmnC-75" value="" style="endArrow=none;html=1;rounded=0;" parent="1" source="om673MOu-7WY-k-pcmnC-74" target="om673MOu-7WY-k-pcmnC-58" edge="1">
          <mxGeometry width="50" height="50" relative="1" as="geometry">
            <mxPoint x="623.2199873271506" y="683.0047513555191" as="sourcePoint" />
            <mxPoint x="635.1219512195125" y="640.060975609756" as="targetPoint" />
          </mxGeometry>
        </mxCell>
        <mxCell id="om673MOu-7WY-k-pcmnC-76" value="" style="endArrow=none;html=1;rounded=0;" parent="1" source="om673MOu-7WY-k-pcmnC-73" target="om673MOu-7WY-k-pcmnC-18" edge="1">
          <mxGeometry width="50" height="50" relative="1" as="geometry">
            <mxPoint x="290" y="440" as="sourcePoint" />
            <mxPoint x="340" y="390" as="targetPoint" />
          </mxGeometry>
        </mxCell>
        <mxCell id="om673MOu-7WY-k-pcmnC-77" value="" style="endArrow=none;html=1;rounded=0;" parent="1" source="om673MOu-7WY-k-pcmnC-56" target="om673MOu-7WY-k-pcmnC-73" edge="1">
          <mxGeometry width="50" height="50" relative="1" as="geometry">
            <mxPoint x="235.71428571428578" y="388.92857142857133" as="sourcePoint" />
            <mxPoint x="147.77777777777783" y="290" as="targetPoint" />
          </mxGeometry>
        </mxCell>
        <mxCell id="om673MOu-7WY-k-pcmnC-78" value="1" style="text;html=1;align=center;verticalAlign=middle;resizable=0;points=[];autosize=1;strokeColor=none;fillColor=none;" parent="1" vertex="1">
          <mxGeometry x="400" y="562.5" width="30" height="30" as="geometry" />
        </mxCell>
        <mxCell id="om673MOu-7WY-k-pcmnC-79" value="q" style="text;html=1;align=center;verticalAlign=middle;resizable=0;points=[];autosize=1;strokeColor=none;fillColor=none;" parent="1" vertex="1">
          <mxGeometry x="420" y="280" width="30" height="30" as="geometry" />
        </mxCell>
        <mxCell id="om673MOu-7WY-k-pcmnC-80" value="Ghi chú" style="ellipse;whiteSpace=wrap;html=1;" parent="1" vertex="1">
          <mxGeometry x="425" y="682.5" width="60" height="40" as="geometry" />
        </mxCell>
        <mxCell id="om673MOu-7WY-k-pcmnC-81" value="" style="endArrow=none;html=1;rounded=0;" parent="1" source="om673MOu-7WY-k-pcmnC-56" target="om673MOu-7WY-k-pcmnC-80" edge="1">
          <mxGeometry width="50" height="50" relative="1" as="geometry">
            <mxPoint x="456.6481185558082" y="571.709327321641" as="sourcePoint" />
            <mxPoint x="441.42857142857156" y="607.5" as="targetPoint" />
          </mxGeometry>
        </mxCell>
        <mxCell id="a5qVzslOi8bkMz1FifIJ-1" value="Ảnh" style="ellipse;whiteSpace=wrap;html=1;" parent="1" vertex="1">
          <mxGeometry x="115" y="652.5" width="65" height="30" as="geometry" />
        </mxCell>
        <mxCell id="a5qVzslOi8bkMz1FifIJ-2" value="" style="endArrow=none;html=1;rounded=0;" parent="1" source="a5qVzslOi8bkMz1FifIJ-1" target="om673MOu-7WY-k-pcmnC-36" edge="1">
          <mxGeometry width="50" height="50" relative="1" as="geometry">
            <mxPoint x="153.19699933293305" y="717.8059237251034" as="sourcePoint" />
            <mxPoint x="59.326923076923094" y="627.5" as="targetPoint" />
          </mxGeometry>
        </mxCell>
        <mxCell id="a5qVzslOi8bkMz1FifIJ-3" value="Tên POC" style="ellipse;whiteSpace=wrap;html=1;" parent="1" vertex="1">
          <mxGeometry x="340" y="682.5" width="60" height="40" as="geometry" />
        </mxCell>
        <mxCell id="a5qVzslOi8bkMz1FifIJ-4" value="" style="endArrow=none;html=1;rounded=0;" parent="1" source="om673MOu-7WY-k-pcmnC-56" target="a5qVzslOi8bkMz1FifIJ-3" edge="1">
          <mxGeometry width="50" height="50" relative="1" as="geometry">
            <mxPoint x="412.9411764705883" y="607.5" as="sourcePoint" />
            <mxPoint x="329.1570881226053" y="550.5268199233717" as="targetPoint" />
          </mxGeometry>
        </mxCell>
        <mxCell id="om673MOu-7WY-k-pcmnC-70" value="m" style="text;html=1;align=center;verticalAlign=middle;resizable=0;points=[];autosize=1;strokeColor=none;fillColor=none;" parent="1" vertex="1">
          <mxGeometry x="455" y="587.5" width="30" height="30" as="geometry" />
        </mxCell>
        <mxCell id="a5qVzslOi8bkMz1FifIJ-5" value="" style="endArrow=none;html=1;rounded=0;" parent="1" source="om673MOu-7WY-k-pcmnC-56" target="om673MOu-7WY-k-pcmnC-70" edge="1">
          <mxGeometry width="50" height="50" relative="1" as="geometry">
            <mxPoint x="455" y="612.5" as="sourcePoint" />
            <mxPoint x="590" y="612.5" as="targetPoint" />
          </mxGeometry>
        </mxCell>
        <mxCell id="bQAw-_y4k-nLKu9BF-pn-3" value="" style="endArrow=none;html=1;rounded=0;startArrow=none;" parent="1" source="bQAw-_y4k-nLKu9BF-pn-1" target="om673MOu-7WY-k-pcmnC-36" edge="1">
          <mxGeometry width="50" height="50" relative="1" as="geometry">
            <mxPoint x="73.75" y="597.590909090909" as="sourcePoint" />
            <mxPoint x="223.27935222672068" y="523.2793522267207" as="targetPoint" />
          </mxGeometry>
        </mxCell>
        <mxCell id="bQAw-_y4k-nLKu9BF-pn-4" value="1" style="text;html=1;align=center;verticalAlign=middle;resizable=0;points=[];autosize=1;strokeColor=none;fillColor=none;" parent="1" vertex="1">
          <mxGeometry x="33.75" y="562.5" width="30" height="30" as="geometry" />
        </mxCell>
        <mxCell id="bQAw-_y4k-nLKu9BF-pn-5" value="1" style="text;html=1;align=center;verticalAlign=middle;resizable=0;points=[];autosize=1;strokeColor=none;fillColor=none;" parent="1" vertex="1">
          <mxGeometry x="380" y="285" width="30" height="30" as="geometry" />
        </mxCell>
        <mxCell id="bQAw-_y4k-nLKu9BF-pn-1" value="Đăng ký" style="rhombus;whiteSpace=wrap;html=1;" parent="1" vertex="1">
          <mxGeometry x="33.75" y="417.5" width="90" height="40" as="geometry" />
        </mxCell>
        <mxCell id="bQAw-_y4k-nLKu9BF-pn-7" value="" style="endArrow=none;html=1;rounded=0;" parent="1" source="om673MOu-7WY-k-pcmnC-1" target="bQAw-_y4k-nLKu9BF-pn-1" edge="1">
          <mxGeometry width="50" height="50" relative="1" as="geometry">
            <mxPoint x="50.88503649635027" y="587.5" as="sourcePoint" />
            <mxPoint x="402.1532846715329" y="280" as="targetPoint" />
          </mxGeometry>
        </mxCell>
        <mxCell id="bQAw-_y4k-nLKu9BF-pn-10" value="" style="endArrow=none;html=1;rounded=0;" parent="1" source="om673MOu-7WY-k-pcmnC-1" edge="1">
          <mxGeometry width="50" height="50" relative="1" as="geometry">
            <mxPoint x="177.0588235294117" y="153.52941176470586" as="sourcePoint" />
            <mxPoint x="183.46153846153857" y="150" as="targetPoint" />
          </mxGeometry>
        </mxCell>
        <mxCell id="PS5uZhhm2lRTmKztlze7-1" value="Đại diện liên hệ" style="ellipse;whiteSpace=wrap;html=1;" parent="1" vertex="1">
          <mxGeometry x="130" y="90" width="120" height="80" as="geometry" />
        </mxCell>
        <mxCell id="EWfTxcbi-qjkXGXBeAcr-1" value="Doanh nghiệp (Ban tổ chức)" style="shape=table;startSize=30;container=1;collapsible=1;childLayout=tableLayout;fixedRows=1;rowLines=0;fontStyle=1;align=center;resizeLast=1;" parent="1" vertex="1">
          <mxGeometry x="-1530" y="80" width="220" height="270" as="geometry" />
        </mxCell>
        <mxCell id="EWfTxcbi-qjkXGXBeAcr-2" value="" style="shape=tableRow;horizontal=0;startSize=0;swimlaneHead=0;swimlaneBody=0;fillColor=none;collapsible=0;dropTarget=0;points=[[0,0.5],[1,0.5]];portConstraint=eastwest;top=0;left=0;right=0;bottom=1;" parent="EWfTxcbi-qjkXGXBeAcr-1" vertex="1">
          <mxGeometry y="30" width="220" height="30" as="geometry" />
        </mxCell>
        <mxCell id="EWfTxcbi-qjkXGXBeAcr-3" value="PK" style="shape=partialRectangle;connectable=0;fillColor=none;top=0;left=0;bottom=0;right=0;fontStyle=1;overflow=hidden;" parent="EWfTxcbi-qjkXGXBeAcr-2" vertex="1">
          <mxGeometry width="30" height="30" as="geometry">
            <mxRectangle width="30" height="30" as="alternateBounds" />
          </mxGeometry>
        </mxCell>
        <mxCell id="EWfTxcbi-qjkXGXBeAcr-4" value="Mã doanh nghiệp (tenant code)" style="shape=partialRectangle;connectable=0;fillColor=none;top=0;left=0;bottom=0;right=0;align=left;spacingLeft=6;fontStyle=5;overflow=hidden;" parent="EWfTxcbi-qjkXGXBeAcr-2" vertex="1">
          <mxGeometry x="30" width="190" height="30" as="geometry">
            <mxRectangle width="190" height="30" as="alternateBounds" />
          </mxGeometry>
        </mxCell>
        <mxCell id="EWfTxcbi-qjkXGXBeAcr-5" value="" style="shape=tableRow;horizontal=0;startSize=0;swimlaneHead=0;swimlaneBody=0;fillColor=none;collapsible=0;dropTarget=0;points=[[0,0.5],[1,0.5]];portConstraint=eastwest;top=0;left=0;right=0;bottom=0;" parent="EWfTxcbi-qjkXGXBeAcr-1" vertex="1">
          <mxGeometry y="60" width="220" height="30" as="geometry" />
        </mxCell>
        <mxCell id="EWfTxcbi-qjkXGXBeAcr-6" value="" style="shape=partialRectangle;connectable=0;fillColor=none;top=0;left=0;bottom=0;right=0;editable=1;overflow=hidden;" parent="EWfTxcbi-qjkXGXBeAcr-5" vertex="1">
          <mxGeometry width="30" height="30" as="geometry">
            <mxRectangle width="30" height="30" as="alternateBounds" />
          </mxGeometry>
        </mxCell>
        <mxCell id="EWfTxcbi-qjkXGXBeAcr-7" value="Tên doanh nghiệp" style="shape=partialRectangle;connectable=0;fillColor=none;top=0;left=0;bottom=0;right=0;align=left;spacingLeft=6;overflow=hidden;" parent="EWfTxcbi-qjkXGXBeAcr-5" vertex="1">
          <mxGeometry x="30" width="190" height="30" as="geometry">
            <mxRectangle width="190" height="30" as="alternateBounds" />
          </mxGeometry>
        </mxCell>
        <mxCell id="EWfTxcbi-qjkXGXBeAcr-8" value="" style="shape=tableRow;horizontal=0;startSize=0;swimlaneHead=0;swimlaneBody=0;fillColor=none;collapsible=0;dropTarget=0;points=[[0,0.5],[1,0.5]];portConstraint=eastwest;top=0;left=0;right=0;bottom=0;" parent="EWfTxcbi-qjkXGXBeAcr-1" vertex="1">
          <mxGeometry y="90" width="220" height="30" as="geometry" />
        </mxCell>
        <mxCell id="EWfTxcbi-qjkXGXBeAcr-9" value="" style="shape=partialRectangle;connectable=0;fillColor=none;top=0;left=0;bottom=0;right=0;editable=1;overflow=hidden;" parent="EWfTxcbi-qjkXGXBeAcr-8" vertex="1">
          <mxGeometry width="30" height="30" as="geometry">
            <mxRectangle width="30" height="30" as="alternateBounds" />
          </mxGeometry>
        </mxCell>
        <mxCell id="EWfTxcbi-qjkXGXBeAcr-10" value="Địa chỉ" style="shape=partialRectangle;connectable=0;fillColor=none;top=0;left=0;bottom=0;right=0;align=left;spacingLeft=6;overflow=hidden;" parent="EWfTxcbi-qjkXGXBeAcr-8" vertex="1">
          <mxGeometry x="30" width="190" height="30" as="geometry">
            <mxRectangle width="190" height="30" as="alternateBounds" />
          </mxGeometry>
        </mxCell>
        <mxCell id="EWfTxcbi-qjkXGXBeAcr-11" value="" style="shape=tableRow;horizontal=0;startSize=0;swimlaneHead=0;swimlaneBody=0;fillColor=none;collapsible=0;dropTarget=0;points=[[0,0.5],[1,0.5]];portConstraint=eastwest;top=0;left=0;right=0;bottom=0;" parent="EWfTxcbi-qjkXGXBeAcr-1" vertex="1">
          <mxGeometry y="120" width="220" height="30" as="geometry" />
        </mxCell>
        <mxCell id="EWfTxcbi-qjkXGXBeAcr-12" value="" style="shape=partialRectangle;connectable=0;fillColor=none;top=0;left=0;bottom=0;right=0;editable=1;overflow=hidden;" parent="EWfTxcbi-qjkXGXBeAcr-11" vertex="1">
          <mxGeometry width="30" height="30" as="geometry">
            <mxRectangle width="30" height="30" as="alternateBounds" />
          </mxGeometry>
        </mxCell>
        <mxCell id="EWfTxcbi-qjkXGXBeAcr-13" value="Website" style="shape=partialRectangle;connectable=0;fillColor=none;top=0;left=0;bottom=0;right=0;align=left;spacingLeft=6;overflow=hidden;" parent="EWfTxcbi-qjkXGXBeAcr-11" vertex="1">
          <mxGeometry x="30" width="190" height="30" as="geometry">
            <mxRectangle width="190" height="30" as="alternateBounds" />
          </mxGeometry>
        </mxCell>
        <mxCell id="6AneTU_jauQ3DX77gTmR-18" value="" style="shape=tableRow;horizontal=0;startSize=0;swimlaneHead=0;swimlaneBody=0;fillColor=none;collapsible=0;dropTarget=0;points=[[0,0.5],[1,0.5]];portConstraint=eastwest;top=0;left=0;right=0;bottom=0;" parent="1" vertex="1">
          <mxGeometry x="-1530" y="230" width="220" height="30" as="geometry" />
        </mxCell>
        <mxCell id="6AneTU_jauQ3DX77gTmR-19" value="" style="shape=partialRectangle;connectable=0;fillColor=none;top=0;left=0;bottom=0;right=0;editable=1;overflow=hidden;" parent="6AneTU_jauQ3DX77gTmR-18" vertex="1">
          <mxGeometry width="30" height="30" as="geometry">
            <mxRectangle width="30" height="30" as="alternateBounds" />
          </mxGeometry>
        </mxCell>
        <mxCell id="6AneTU_jauQ3DX77gTmR-20" value="Tên người liên hệ" style="shape=partialRectangle;connectable=0;fillColor=none;top=0;left=0;bottom=0;right=0;align=left;spacingLeft=6;overflow=hidden;" parent="6AneTU_jauQ3DX77gTmR-18" vertex="1">
          <mxGeometry x="30" width="190" height="30" as="geometry">
            <mxRectangle width="190" height="30" as="alternateBounds" />
          </mxGeometry>
        </mxCell>
        <mxCell id="6AneTU_jauQ3DX77gTmR-21" value="" style="shape=tableRow;horizontal=0;startSize=0;swimlaneHead=0;swimlaneBody=0;fillColor=none;collapsible=0;dropTarget=0;points=[[0,0.5],[1,0.5]];portConstraint=eastwest;top=0;left=0;right=0;bottom=0;" parent="1" vertex="1">
          <mxGeometry x="-1530" y="260" width="220" height="30" as="geometry" />
        </mxCell>
        <mxCell id="6AneTU_jauQ3DX77gTmR-22" value="" style="shape=partialRectangle;connectable=0;fillColor=none;top=0;left=0;bottom=0;right=0;editable=1;overflow=hidden;" parent="6AneTU_jauQ3DX77gTmR-21" vertex="1">
          <mxGeometry width="30" height="30" as="geometry">
            <mxRectangle width="30" height="30" as="alternateBounds" />
          </mxGeometry>
        </mxCell>
        <mxCell id="6AneTU_jauQ3DX77gTmR-23" value="Số ĐT" style="shape=partialRectangle;connectable=0;fillColor=none;top=0;left=0;bottom=0;right=0;align=left;spacingLeft=6;overflow=hidden;" parent="6AneTU_jauQ3DX77gTmR-21" vertex="1">
          <mxGeometry x="30" width="190" height="30" as="geometry">
            <mxRectangle width="190" height="30" as="alternateBounds" />
          </mxGeometry>
        </mxCell>
        <mxCell id="6AneTU_jauQ3DX77gTmR-24" value="" style="shape=tableRow;horizontal=0;startSize=0;swimlaneHead=0;swimlaneBody=0;fillColor=none;collapsible=0;dropTarget=0;points=[[0,0.5],[1,0.5]];portConstraint=eastwest;top=0;left=0;right=0;bottom=0;" parent="1" vertex="1">
          <mxGeometry x="-1530" y="290" width="220" height="30" as="geometry" />
        </mxCell>
        <mxCell id="6AneTU_jauQ3DX77gTmR-25" value="" style="shape=partialRectangle;connectable=0;fillColor=none;top=0;left=0;bottom=0;right=0;editable=1;overflow=hidden;" parent="6AneTU_jauQ3DX77gTmR-24" vertex="1">
          <mxGeometry width="30" height="30" as="geometry">
            <mxRectangle width="30" height="30" as="alternateBounds" />
          </mxGeometry>
        </mxCell>
        <mxCell id="6AneTU_jauQ3DX77gTmR-26" value="Mail" style="shape=partialRectangle;connectable=0;fillColor=none;top=0;left=0;bottom=0;right=0;align=left;spacingLeft=6;overflow=hidden;" parent="6AneTU_jauQ3DX77gTmR-24" vertex="1">
          <mxGeometry x="30" width="190" height="30" as="geometry">
            <mxRectangle width="190" height="30" as="alternateBounds" />
          </mxGeometry>
        </mxCell>
        <mxCell id="6AneTU_jauQ3DX77gTmR-27" value="" style="endArrow=none;html=1;rounded=0;" parent="1" edge="1">
          <mxGeometry width="50" height="50" relative="1" as="geometry">
            <mxPoint x="-1500" y="350" as="sourcePoint" />
            <mxPoint x="-1500" y="225" as="targetPoint" />
          </mxGeometry>
        </mxCell>
        <mxCell id="6AneTU_jauQ3DX77gTmR-31" value="Tổ chức sự kiện" style="shape=table;startSize=30;container=1;collapsible=1;childLayout=tableLayout;fixedRows=1;rowLines=0;fontStyle=1;align=center;resizeLast=1;" parent="1" vertex="1">
          <mxGeometry x="-1210" y="80" width="180" height="100" as="geometry">
            <mxRectangle x="-1030" y="220" width="130" height="30" as="alternateBounds" />
          </mxGeometry>
        </mxCell>
        <mxCell id="6AneTU_jauQ3DX77gTmR-32" value="" style="shape=tableRow;horizontal=0;startSize=0;swimlaneHead=0;swimlaneBody=0;fillColor=none;collapsible=0;dropTarget=0;points=[[0,0.5],[1,0.5]];portConstraint=eastwest;top=0;left=0;right=0;bottom=0;" parent="6AneTU_jauQ3DX77gTmR-31" vertex="1">
          <mxGeometry y="30" width="180" height="30" as="geometry" />
        </mxCell>
        <mxCell id="6AneTU_jauQ3DX77gTmR-33" value="PK,FK1" style="shape=partialRectangle;connectable=0;fillColor=none;top=0;left=0;bottom=0;right=0;fontStyle=1;overflow=hidden;" parent="6AneTU_jauQ3DX77gTmR-32" vertex="1">
          <mxGeometry width="60" height="30" as="geometry">
            <mxRectangle width="60" height="30" as="alternateBounds" />
          </mxGeometry>
        </mxCell>
        <mxCell id="6AneTU_jauQ3DX77gTmR-34" value="Mã doanh nghiệp" style="shape=partialRectangle;connectable=0;fillColor=none;top=0;left=0;bottom=0;right=0;align=left;spacingLeft=6;fontStyle=5;overflow=hidden;" parent="6AneTU_jauQ3DX77gTmR-32" vertex="1">
          <mxGeometry x="60" width="120" height="30" as="geometry">
            <mxRectangle width="120" height="30" as="alternateBounds" />
          </mxGeometry>
        </mxCell>
        <mxCell id="6AneTU_jauQ3DX77gTmR-35" value="" style="shape=tableRow;horizontal=0;startSize=0;swimlaneHead=0;swimlaneBody=0;fillColor=none;collapsible=0;dropTarget=0;points=[[0,0.5],[1,0.5]];portConstraint=eastwest;top=0;left=0;right=0;bottom=1;" parent="6AneTU_jauQ3DX77gTmR-31" vertex="1">
          <mxGeometry y="60" width="180" height="30" as="geometry" />
        </mxCell>
        <mxCell id="6AneTU_jauQ3DX77gTmR-36" value="PK,FK2" style="shape=partialRectangle;connectable=0;fillColor=none;top=0;left=0;bottom=0;right=0;fontStyle=1;overflow=hidden;" parent="6AneTU_jauQ3DX77gTmR-35" vertex="1">
          <mxGeometry width="60" height="30" as="geometry">
            <mxRectangle width="60" height="30" as="alternateBounds" />
          </mxGeometry>
        </mxCell>
        <mxCell id="6AneTU_jauQ3DX77gTmR-37" value="Mã sự kiện" style="shape=partialRectangle;connectable=0;fillColor=none;top=0;left=0;bottom=0;right=0;align=left;spacingLeft=6;fontStyle=5;overflow=hidden;" parent="6AneTU_jauQ3DX77gTmR-35" vertex="1">
          <mxGeometry x="60" width="120" height="30" as="geometry">
            <mxRectangle width="120" height="30" as="alternateBounds" />
          </mxGeometry>
        </mxCell>
        <mxCell id="6AneTU_jauQ3DX77gTmR-47" value="Sự kiện" style="shape=table;startSize=30;container=1;collapsible=1;childLayout=tableLayout;fixedRows=1;rowLines=0;fontStyle=1;align=center;resizeLast=1;" parent="1" vertex="1">
          <mxGeometry x="-940" y="80" width="220" height="210" as="geometry" />
        </mxCell>
        <mxCell id="6AneTU_jauQ3DX77gTmR-48" value="" style="shape=tableRow;horizontal=0;startSize=0;swimlaneHead=0;swimlaneBody=0;fillColor=none;collapsible=0;dropTarget=0;points=[[0,0.5],[1,0.5]];portConstraint=eastwest;top=0;left=0;right=0;bottom=1;" parent="6AneTU_jauQ3DX77gTmR-47" vertex="1">
          <mxGeometry y="30" width="220" height="30" as="geometry" />
        </mxCell>
        <mxCell id="6AneTU_jauQ3DX77gTmR-49" value="PK" style="shape=partialRectangle;connectable=0;fillColor=none;top=0;left=0;bottom=0;right=0;fontStyle=1;overflow=hidden;" parent="6AneTU_jauQ3DX77gTmR-48" vertex="1">
          <mxGeometry width="30" height="30" as="geometry">
            <mxRectangle width="30" height="30" as="alternateBounds" />
          </mxGeometry>
        </mxCell>
        <mxCell id="6AneTU_jauQ3DX77gTmR-50" value="Mã sự kiện" style="shape=partialRectangle;connectable=0;fillColor=none;top=0;left=0;bottom=0;right=0;align=left;spacingLeft=6;fontStyle=5;overflow=hidden;" parent="6AneTU_jauQ3DX77gTmR-48" vertex="1">
          <mxGeometry x="30" width="190" height="30" as="geometry">
            <mxRectangle width="190" height="30" as="alternateBounds" />
          </mxGeometry>
        </mxCell>
        <mxCell id="6AneTU_jauQ3DX77gTmR-51" value="" style="shape=tableRow;horizontal=0;startSize=0;swimlaneHead=0;swimlaneBody=0;fillColor=none;collapsible=0;dropTarget=0;points=[[0,0.5],[1,0.5]];portConstraint=eastwest;top=0;left=0;right=0;bottom=0;" parent="6AneTU_jauQ3DX77gTmR-47" vertex="1">
          <mxGeometry y="60" width="220" height="30" as="geometry" />
        </mxCell>
        <mxCell id="6AneTU_jauQ3DX77gTmR-52" value="" style="shape=partialRectangle;connectable=0;fillColor=none;top=0;left=0;bottom=0;right=0;editable=1;overflow=hidden;" parent="6AneTU_jauQ3DX77gTmR-51" vertex="1">
          <mxGeometry width="30" height="30" as="geometry">
            <mxRectangle width="30" height="30" as="alternateBounds" />
          </mxGeometry>
        </mxCell>
        <mxCell id="6AneTU_jauQ3DX77gTmR-53" value="Tên sự kiện" style="shape=partialRectangle;connectable=0;fillColor=none;top=0;left=0;bottom=0;right=0;align=left;spacingLeft=6;overflow=hidden;" parent="6AneTU_jauQ3DX77gTmR-51" vertex="1">
          <mxGeometry x="30" width="190" height="30" as="geometry">
            <mxRectangle width="190" height="30" as="alternateBounds" />
          </mxGeometry>
        </mxCell>
        <mxCell id="6AneTU_jauQ3DX77gTmR-54" value="" style="shape=tableRow;horizontal=0;startSize=0;swimlaneHead=0;swimlaneBody=0;fillColor=none;collapsible=0;dropTarget=0;points=[[0,0.5],[1,0.5]];portConstraint=eastwest;top=0;left=0;right=0;bottom=0;" parent="6AneTU_jauQ3DX77gTmR-47" vertex="1">
          <mxGeometry y="90" width="220" height="30" as="geometry" />
        </mxCell>
        <mxCell id="6AneTU_jauQ3DX77gTmR-55" value="" style="shape=partialRectangle;connectable=0;fillColor=none;top=0;left=0;bottom=0;right=0;editable=1;overflow=hidden;" parent="6AneTU_jauQ3DX77gTmR-54" vertex="1">
          <mxGeometry width="30" height="30" as="geometry">
            <mxRectangle width="30" height="30" as="alternateBounds" />
          </mxGeometry>
        </mxCell>
        <mxCell id="6AneTU_jauQ3DX77gTmR-56" value="Thời gian bắt đầu" style="shape=partialRectangle;connectable=0;fillColor=none;top=0;left=0;bottom=0;right=0;align=left;spacingLeft=6;overflow=hidden;" parent="6AneTU_jauQ3DX77gTmR-54" vertex="1">
          <mxGeometry x="30" width="190" height="30" as="geometry">
            <mxRectangle width="190" height="30" as="alternateBounds" />
          </mxGeometry>
        </mxCell>
        <mxCell id="6AneTU_jauQ3DX77gTmR-57" value="" style="shape=tableRow;horizontal=0;startSize=0;swimlaneHead=0;swimlaneBody=0;fillColor=none;collapsible=0;dropTarget=0;points=[[0,0.5],[1,0.5]];portConstraint=eastwest;top=0;left=0;right=0;bottom=0;" parent="6AneTU_jauQ3DX77gTmR-47" vertex="1">
          <mxGeometry y="120" width="220" height="30" as="geometry" />
        </mxCell>
        <mxCell id="6AneTU_jauQ3DX77gTmR-58" value="" style="shape=partialRectangle;connectable=0;fillColor=none;top=0;left=0;bottom=0;right=0;editable=1;overflow=hidden;" parent="6AneTU_jauQ3DX77gTmR-57" vertex="1">
          <mxGeometry width="30" height="30" as="geometry">
            <mxRectangle width="30" height="30" as="alternateBounds" />
          </mxGeometry>
        </mxCell>
        <mxCell id="6AneTU_jauQ3DX77gTmR-59" value="Thời gian kết thúc" style="shape=partialRectangle;connectable=0;fillColor=none;top=0;left=0;bottom=0;right=0;align=left;spacingLeft=6;overflow=hidden;" parent="6AneTU_jauQ3DX77gTmR-57" vertex="1">
          <mxGeometry x="30" width="190" height="30" as="geometry">
            <mxRectangle width="190" height="30" as="alternateBounds" />
          </mxGeometry>
        </mxCell>
        <mxCell id="6AneTU_jauQ3DX77gTmR-60" value="" style="shape=tableRow;horizontal=0;startSize=0;swimlaneHead=0;swimlaneBody=0;fillColor=none;collapsible=0;dropTarget=0;points=[[0,0.5],[1,0.5]];portConstraint=eastwest;top=0;left=0;right=0;bottom=0;" parent="1" vertex="1">
          <mxGeometry x="-940" y="230" width="220" height="30" as="geometry" />
        </mxCell>
        <mxCell id="6AneTU_jauQ3DX77gTmR-61" value="" style="shape=partialRectangle;connectable=0;fillColor=none;top=0;left=0;bottom=0;right=0;editable=1;overflow=hidden;" parent="6AneTU_jauQ3DX77gTmR-60" vertex="1">
          <mxGeometry width="30" height="30" as="geometry">
            <mxRectangle width="30" height="30" as="alternateBounds" />
          </mxGeometry>
        </mxCell>
        <mxCell id="6AneTU_jauQ3DX77gTmR-62" value="Ảnh" style="shape=partialRectangle;connectable=0;fillColor=none;top=0;left=0;bottom=0;right=0;align=left;spacingLeft=6;overflow=hidden;" parent="6AneTU_jauQ3DX77gTmR-60" vertex="1">
          <mxGeometry x="30" width="190" height="30" as="geometry">
            <mxRectangle width="190" height="30" as="alternateBounds" />
          </mxGeometry>
        </mxCell>
        <mxCell id="6AneTU_jauQ3DX77gTmR-63" value="" style="shape=tableRow;horizontal=0;startSize=0;swimlaneHead=0;swimlaneBody=0;fillColor=none;collapsible=0;dropTarget=0;points=[[0,0.5],[1,0.5]];portConstraint=eastwest;top=0;left=0;right=0;bottom=0;" parent="1" vertex="1">
          <mxGeometry x="-940" y="260" width="220" height="30" as="geometry" />
        </mxCell>
        <mxCell id="6AneTU_jauQ3DX77gTmR-64" value="" style="shape=partialRectangle;connectable=0;fillColor=none;top=0;left=0;bottom=0;right=0;editable=1;overflow=hidden;" parent="6AneTU_jauQ3DX77gTmR-63" vertex="1">
          <mxGeometry width="30" height="30" as="geometry">
            <mxRectangle width="30" height="30" as="alternateBounds" />
          </mxGeometry>
        </mxCell>
        <mxCell id="6AneTU_jauQ3DX77gTmR-65" value="Ghi chú" style="shape=partialRectangle;connectable=0;fillColor=none;top=0;left=0;bottom=0;right=0;align=left;spacingLeft=6;overflow=hidden;" parent="6AneTU_jauQ3DX77gTmR-63" vertex="1">
          <mxGeometry x="30" width="190" height="30" as="geometry">
            <mxRectangle width="190" height="30" as="alternateBounds" />
          </mxGeometry>
        </mxCell>
        <mxCell id="6AneTU_jauQ3DX77gTmR-66" value="" style="shape=tableRow;horizontal=0;startSize=0;swimlaneHead=0;swimlaneBody=0;fillColor=none;collapsible=0;dropTarget=0;points=[[0,0.5],[1,0.5]];portConstraint=eastwest;top=0;left=0;right=0;bottom=0;" parent="1" vertex="1">
          <mxGeometry x="-940" y="290" width="220" height="30" as="geometry" />
        </mxCell>
        <mxCell id="6AneTU_jauQ3DX77gTmR-67" value="" style="shape=partialRectangle;connectable=0;fillColor=none;top=0;left=0;bottom=0;right=0;editable=1;overflow=hidden;" parent="6AneTU_jauQ3DX77gTmR-66" vertex="1">
          <mxGeometry width="30" height="30" as="geometry">
            <mxRectangle width="30" height="30" as="alternateBounds" />
          </mxGeometry>
        </mxCell>
        <mxCell id="6AneTU_jauQ3DX77gTmR-69" value="" style="endArrow=none;html=1;rounded=0;exitX=0.134;exitY=-0.025;exitDx=0;exitDy=0;exitPerimeter=0;" parent="1" source="6AneTU_jauQ3DX77gTmR-66" edge="1">
          <mxGeometry width="50" height="50" relative="1" as="geometry">
            <mxPoint x="-910" y="330" as="sourcePoint" />
            <mxPoint x="-910" y="230" as="targetPoint" />
          </mxGeometry>
        </mxCell>
        <mxCell id="6AneTU_jauQ3DX77gTmR-72" value="Người dùng (account)" style="shape=table;startSize=30;container=1;collapsible=1;childLayout=tableLayout;fixedRows=1;rowLines=0;fontStyle=1;align=center;resizeLast=1;" parent="1" vertex="1">
          <mxGeometry x="-1740" y="428.75" width="220" height="250" as="geometry" />
        </mxCell>
        <mxCell id="6AneTU_jauQ3DX77gTmR-73" value="" style="shape=tableRow;horizontal=0;startSize=0;swimlaneHead=0;swimlaneBody=0;fillColor=none;collapsible=0;dropTarget=0;points=[[0,0.5],[1,0.5]];portConstraint=eastwest;top=0;left=0;right=0;bottom=1;" parent="6AneTU_jauQ3DX77gTmR-72" vertex="1">
          <mxGeometry y="30" width="220" height="30" as="geometry" />
        </mxCell>
        <mxCell id="6AneTU_jauQ3DX77gTmR-74" value="PK" style="shape=partialRectangle;connectable=0;fillColor=none;top=0;left=0;bottom=0;right=0;fontStyle=1;overflow=hidden;" parent="6AneTU_jauQ3DX77gTmR-73" vertex="1">
          <mxGeometry width="30" height="30" as="geometry">
            <mxRectangle width="30" height="30" as="alternateBounds" />
          </mxGeometry>
        </mxCell>
        <mxCell id="6AneTU_jauQ3DX77gTmR-75" value="Username" style="shape=partialRectangle;connectable=0;fillColor=none;top=0;left=0;bottom=0;right=0;align=left;spacingLeft=6;fontStyle=5;overflow=hidden;" parent="6AneTU_jauQ3DX77gTmR-73" vertex="1">
          <mxGeometry x="30" width="190" height="30" as="geometry">
            <mxRectangle width="190" height="30" as="alternateBounds" />
          </mxGeometry>
        </mxCell>
        <mxCell id="6AneTU_jauQ3DX77gTmR-76" value="" style="shape=tableRow;horizontal=0;startSize=0;swimlaneHead=0;swimlaneBody=0;fillColor=none;collapsible=0;dropTarget=0;points=[[0,0.5],[1,0.5]];portConstraint=eastwest;top=0;left=0;right=0;bottom=0;" parent="6AneTU_jauQ3DX77gTmR-72" vertex="1">
          <mxGeometry y="60" width="220" height="30" as="geometry" />
        </mxCell>
        <mxCell id="6AneTU_jauQ3DX77gTmR-77" value="" style="shape=partialRectangle;connectable=0;fillColor=none;top=0;left=0;bottom=0;right=0;editable=1;overflow=hidden;" parent="6AneTU_jauQ3DX77gTmR-76" vertex="1">
          <mxGeometry width="30" height="30" as="geometry">
            <mxRectangle width="30" height="30" as="alternateBounds" />
          </mxGeometry>
        </mxCell>
        <mxCell id="6AneTU_jauQ3DX77gTmR-78" value="Password" style="shape=partialRectangle;connectable=0;fillColor=none;top=0;left=0;bottom=0;right=0;align=left;spacingLeft=6;overflow=hidden;" parent="6AneTU_jauQ3DX77gTmR-76" vertex="1">
          <mxGeometry x="30" width="190" height="30" as="geometry">
            <mxRectangle width="190" height="30" as="alternateBounds" />
          </mxGeometry>
        </mxCell>
        <mxCell id="6AneTU_jauQ3DX77gTmR-79" value="" style="shape=tableRow;horizontal=0;startSize=0;swimlaneHead=0;swimlaneBody=0;fillColor=none;collapsible=0;dropTarget=0;points=[[0,0.5],[1,0.5]];portConstraint=eastwest;top=0;left=0;right=0;bottom=0;" parent="6AneTU_jauQ3DX77gTmR-72" vertex="1">
          <mxGeometry y="90" width="220" height="30" as="geometry" />
        </mxCell>
        <mxCell id="6AneTU_jauQ3DX77gTmR-80" value="" style="shape=partialRectangle;connectable=0;fillColor=none;top=0;left=0;bottom=0;right=0;editable=1;overflow=hidden;" parent="6AneTU_jauQ3DX77gTmR-79" vertex="1">
          <mxGeometry width="30" height="30" as="geometry">
            <mxRectangle width="30" height="30" as="alternateBounds" />
          </mxGeometry>
        </mxCell>
        <mxCell id="6AneTU_jauQ3DX77gTmR-81" value="Họ và tên" style="shape=partialRectangle;connectable=0;fillColor=none;top=0;left=0;bottom=0;right=0;align=left;spacingLeft=6;overflow=hidden;" parent="6AneTU_jauQ3DX77gTmR-79" vertex="1">
          <mxGeometry x="30" width="190" height="30" as="geometry">
            <mxRectangle width="190" height="30" as="alternateBounds" />
          </mxGeometry>
        </mxCell>
        <mxCell id="6AneTU_jauQ3DX77gTmR-82" value="" style="shape=tableRow;horizontal=0;startSize=0;swimlaneHead=0;swimlaneBody=0;fillColor=none;collapsible=0;dropTarget=0;points=[[0,0.5],[1,0.5]];portConstraint=eastwest;top=0;left=0;right=0;bottom=0;" parent="6AneTU_jauQ3DX77gTmR-72" vertex="1">
          <mxGeometry y="120" width="220" height="30" as="geometry" />
        </mxCell>
        <mxCell id="6AneTU_jauQ3DX77gTmR-83" value="" style="shape=partialRectangle;connectable=0;fillColor=none;top=0;left=0;bottom=0;right=0;editable=1;overflow=hidden;" parent="6AneTU_jauQ3DX77gTmR-82" vertex="1">
          <mxGeometry width="30" height="30" as="geometry">
            <mxRectangle width="30" height="30" as="alternateBounds" />
          </mxGeometry>
        </mxCell>
        <mxCell id="6AneTU_jauQ3DX77gTmR-84" value="Số ĐT" style="shape=partialRectangle;connectable=0;fillColor=none;top=0;left=0;bottom=0;right=0;align=left;spacingLeft=6;overflow=hidden;" parent="6AneTU_jauQ3DX77gTmR-82" vertex="1">
          <mxGeometry x="30" width="190" height="30" as="geometry">
            <mxRectangle width="190" height="30" as="alternateBounds" />
          </mxGeometry>
        </mxCell>
        <mxCell id="6AneTU_jauQ3DX77gTmR-85" value="" style="shape=tableRow;horizontal=0;startSize=0;swimlaneHead=0;swimlaneBody=0;fillColor=none;collapsible=0;dropTarget=0;points=[[0,0.5],[1,0.5]];portConstraint=eastwest;top=0;left=0;right=0;bottom=0;" parent="1" vertex="1">
          <mxGeometry x="-1740" y="578.75" width="220" height="30" as="geometry" />
        </mxCell>
        <mxCell id="6AneTU_jauQ3DX77gTmR-86" value="" style="shape=partialRectangle;connectable=0;fillColor=none;top=0;left=0;bottom=0;right=0;editable=1;overflow=hidden;" parent="6AneTU_jauQ3DX77gTmR-85" vertex="1">
          <mxGeometry width="30" height="30" as="geometry">
            <mxRectangle width="30" height="30" as="alternateBounds" />
          </mxGeometry>
        </mxCell>
        <mxCell id="6AneTU_jauQ3DX77gTmR-87" value="Email" style="shape=partialRectangle;connectable=0;fillColor=none;top=0;left=0;bottom=0;right=0;align=left;spacingLeft=6;overflow=hidden;" parent="6AneTU_jauQ3DX77gTmR-85" vertex="1">
          <mxGeometry x="30" width="190" height="30" as="geometry">
            <mxRectangle width="190" height="30" as="alternateBounds" />
          </mxGeometry>
        </mxCell>
        <mxCell id="6AneTU_jauQ3DX77gTmR-88" value="" style="shape=tableRow;horizontal=0;startSize=0;swimlaneHead=0;swimlaneBody=0;fillColor=none;collapsible=0;dropTarget=0;points=[[0,0.5],[1,0.5]];portConstraint=eastwest;top=0;left=0;right=0;bottom=0;" parent="1" vertex="1">
          <mxGeometry x="-1740" y="608.75" width="220" height="30" as="geometry" />
        </mxCell>
        <mxCell id="6AneTU_jauQ3DX77gTmR-89" value="FK" style="shape=partialRectangle;connectable=0;fillColor=none;top=0;left=0;bottom=0;right=0;editable=1;overflow=hidden;" parent="6AneTU_jauQ3DX77gTmR-88" vertex="1">
          <mxGeometry width="30" height="30" as="geometry">
            <mxRectangle width="30" height="30" as="alternateBounds" />
          </mxGeometry>
        </mxCell>
        <mxCell id="6AneTU_jauQ3DX77gTmR-90" value="Mã doanh nghiệp (tenant code)" style="shape=partialRectangle;connectable=0;fillColor=none;top=0;left=0;bottom=0;right=0;align=left;spacingLeft=6;overflow=hidden;" parent="6AneTU_jauQ3DX77gTmR-88" vertex="1">
          <mxGeometry x="30" width="190" height="30" as="geometry">
            <mxRectangle width="190" height="30" as="alternateBounds" />
          </mxGeometry>
        </mxCell>
        <mxCell id="6AneTU_jauQ3DX77gTmR-91" value="" style="shape=tableRow;horizontal=0;startSize=0;swimlaneHead=0;swimlaneBody=0;fillColor=none;collapsible=0;dropTarget=0;points=[[0,0.5],[1,0.5]];portConstraint=eastwest;top=0;left=0;right=0;bottom=0;" parent="1" vertex="1">
          <mxGeometry x="-1740" y="638.75" width="220" height="30" as="geometry" />
        </mxCell>
        <mxCell id="6AneTU_jauQ3DX77gTmR-92" value="" style="shape=partialRectangle;connectable=0;fillColor=none;top=0;left=0;bottom=0;right=0;editable=1;overflow=hidden;" parent="6AneTU_jauQ3DX77gTmR-91" vertex="1">
          <mxGeometry width="30" height="30" as="geometry">
            <mxRectangle width="30" height="30" as="alternateBounds" />
          </mxGeometry>
        </mxCell>
        <mxCell id="6AneTU_jauQ3DX77gTmR-93" value="Quyền (role)" style="shape=partialRectangle;connectable=0;fillColor=none;top=0;left=0;bottom=0;right=0;align=left;spacingLeft=6;overflow=hidden;" parent="6AneTU_jauQ3DX77gTmR-91" vertex="1">
          <mxGeometry x="30" width="190" height="30" as="geometry">
            <mxRectangle width="190" height="30" as="alternateBounds" />
          </mxGeometry>
        </mxCell>
        <mxCell id="6AneTU_jauQ3DX77gTmR-94" value="" style="endArrow=none;html=1;rounded=0;" parent="1" edge="1">
          <mxGeometry width="50" height="50" relative="1" as="geometry">
            <mxPoint x="-1710" y="678.75" as="sourcePoint" />
            <mxPoint x="-1710" y="578.75" as="targetPoint" />
          </mxGeometry>
        </mxCell>
        <mxCell id="6AneTU_jauQ3DX77gTmR-95" value="POC" style="shape=table;startSize=30;container=1;collapsible=1;childLayout=tableLayout;fixedRows=1;rowLines=0;fontStyle=1;align=center;resizeLast=1;" parent="1" vertex="1">
          <mxGeometry x="-1350" y="497.5" width="220" height="187.5" as="geometry" />
        </mxCell>
        <mxCell id="6AneTU_jauQ3DX77gTmR-96" value="" style="shape=tableRow;horizontal=0;startSize=0;swimlaneHead=0;swimlaneBody=0;fillColor=none;collapsible=0;dropTarget=0;points=[[0,0.5],[1,0.5]];portConstraint=eastwest;top=0;left=0;right=0;bottom=1;" parent="6AneTU_jauQ3DX77gTmR-95" vertex="1">
          <mxGeometry y="30" width="220" height="30" as="geometry" />
        </mxCell>
        <mxCell id="6AneTU_jauQ3DX77gTmR-97" value="PK" style="shape=partialRectangle;connectable=0;fillColor=none;top=0;left=0;bottom=0;right=0;fontStyle=1;overflow=hidden;" parent="6AneTU_jauQ3DX77gTmR-96" vertex="1">
          <mxGeometry width="30" height="30" as="geometry">
            <mxRectangle width="30" height="30" as="alternateBounds" />
          </mxGeometry>
        </mxCell>
        <mxCell id="6AneTU_jauQ3DX77gTmR-98" value="Mã POC" style="shape=partialRectangle;connectable=0;fillColor=none;top=0;left=0;bottom=0;right=0;align=left;spacingLeft=6;fontStyle=5;overflow=hidden;" parent="6AneTU_jauQ3DX77gTmR-96" vertex="1">
          <mxGeometry x="30" width="190" height="30" as="geometry">
            <mxRectangle width="190" height="30" as="alternateBounds" />
          </mxGeometry>
        </mxCell>
        <mxCell id="6AneTU_jauQ3DX77gTmR-99" value="" style="shape=tableRow;horizontal=0;startSize=0;swimlaneHead=0;swimlaneBody=0;fillColor=none;collapsible=0;dropTarget=0;points=[[0,0.5],[1,0.5]];portConstraint=eastwest;top=0;left=0;right=0;bottom=0;" parent="6AneTU_jauQ3DX77gTmR-95" vertex="1">
          <mxGeometry y="60" width="220" height="30" as="geometry" />
        </mxCell>
        <mxCell id="6AneTU_jauQ3DX77gTmR-100" value="" style="shape=partialRectangle;connectable=0;fillColor=none;top=0;left=0;bottom=0;right=0;editable=1;overflow=hidden;" parent="6AneTU_jauQ3DX77gTmR-99" vertex="1">
          <mxGeometry width="30" height="30" as="geometry">
            <mxRectangle width="30" height="30" as="alternateBounds" />
          </mxGeometry>
        </mxCell>
        <mxCell id="6AneTU_jauQ3DX77gTmR-101" value="Tên POC" style="shape=partialRectangle;connectable=0;fillColor=none;top=0;left=0;bottom=0;right=0;align=left;spacingLeft=6;overflow=hidden;" parent="6AneTU_jauQ3DX77gTmR-99" vertex="1">
          <mxGeometry x="30" width="190" height="30" as="geometry">
            <mxRectangle width="190" height="30" as="alternateBounds" />
          </mxGeometry>
        </mxCell>
        <mxCell id="6AneTU_jauQ3DX77gTmR-102" value="" style="shape=tableRow;horizontal=0;startSize=0;swimlaneHead=0;swimlaneBody=0;fillColor=none;collapsible=0;dropTarget=0;points=[[0,0.5],[1,0.5]];portConstraint=eastwest;top=0;left=0;right=0;bottom=0;" parent="6AneTU_jauQ3DX77gTmR-95" vertex="1">
          <mxGeometry y="90" width="220" height="30" as="geometry" />
        </mxCell>
        <mxCell id="6AneTU_jauQ3DX77gTmR-103" value="" style="shape=partialRectangle;connectable=0;fillColor=none;top=0;left=0;bottom=0;right=0;editable=1;overflow=hidden;" parent="6AneTU_jauQ3DX77gTmR-102" vertex="1">
          <mxGeometry width="30" height="30" as="geometry">
            <mxRectangle width="30" height="30" as="alternateBounds" />
          </mxGeometry>
        </mxCell>
        <mxCell id="6AneTU_jauQ3DX77gTmR-104" value="Ghi chú" style="shape=partialRectangle;connectable=0;fillColor=none;top=0;left=0;bottom=0;right=0;align=left;spacingLeft=6;overflow=hidden;" parent="6AneTU_jauQ3DX77gTmR-102" vertex="1">
          <mxGeometry x="30" width="190" height="30" as="geometry">
            <mxRectangle width="190" height="30" as="alternateBounds" />
          </mxGeometry>
        </mxCell>
        <mxCell id="6AneTU_jauQ3DX77gTmR-105" value="" style="shape=tableRow;horizontal=0;startSize=0;swimlaneHead=0;swimlaneBody=0;fillColor=none;collapsible=0;dropTarget=0;points=[[0,0.5],[1,0.5]];portConstraint=eastwest;top=0;left=0;right=0;bottom=0;" parent="6AneTU_jauQ3DX77gTmR-95" vertex="1">
          <mxGeometry y="120" width="220" height="30" as="geometry" />
        </mxCell>
        <mxCell id="6AneTU_jauQ3DX77gTmR-106" value="FK" style="shape=partialRectangle;connectable=0;fillColor=none;top=0;left=0;bottom=0;right=0;editable=1;overflow=hidden;" parent="6AneTU_jauQ3DX77gTmR-105" vertex="1">
          <mxGeometry width="30" height="30" as="geometry">
            <mxRectangle width="30" height="30" as="alternateBounds" />
          </mxGeometry>
        </mxCell>
        <mxCell id="6AneTU_jauQ3DX77gTmR-107" value="Mã sự kiện" style="shape=partialRectangle;connectable=0;fillColor=none;top=0;left=0;bottom=0;right=0;align=left;spacingLeft=6;overflow=hidden;" parent="6AneTU_jauQ3DX77gTmR-105" vertex="1">
          <mxGeometry x="30" width="190" height="30" as="geometry">
            <mxRectangle width="190" height="30" as="alternateBounds" />
          </mxGeometry>
        </mxCell>
        <mxCell id="6AneTU_jauQ3DX77gTmR-108" value="" style="shape=tableRow;horizontal=0;startSize=0;swimlaneHead=0;swimlaneBody=0;fillColor=none;collapsible=0;dropTarget=0;points=[[0,0.5],[1,0.5]];portConstraint=eastwest;top=0;left=0;right=0;bottom=0;" parent="1" vertex="1">
          <mxGeometry x="-1350" y="647.5" width="220" height="30" as="geometry" />
        </mxCell>
        <mxCell id="6AneTU_jauQ3DX77gTmR-109" value="FK" style="shape=partialRectangle;connectable=0;fillColor=none;top=0;left=0;bottom=0;right=0;editable=1;overflow=hidden;" parent="6AneTU_jauQ3DX77gTmR-108" vertex="1">
          <mxGeometry width="30" height="30" as="geometry">
            <mxRectangle width="30" height="30" as="alternateBounds" />
          </mxGeometry>
        </mxCell>
        <mxCell id="6AneTU_jauQ3DX77gTmR-110" value="Username" style="shape=partialRectangle;connectable=0;fillColor=none;top=0;left=0;bottom=0;right=0;align=left;spacingLeft=6;overflow=hidden;" parent="6AneTU_jauQ3DX77gTmR-108" vertex="1">
          <mxGeometry x="30" width="190" height="30" as="geometry">
            <mxRectangle width="190" height="30" as="alternateBounds" />
          </mxGeometry>
        </mxCell>
        <mxCell id="6AneTU_jauQ3DX77gTmR-117" value="" style="endArrow=none;html=1;rounded=0;" parent="1" edge="1">
          <mxGeometry width="50" height="50" relative="1" as="geometry">
            <mxPoint x="-1320" y="685" as="sourcePoint" />
            <mxPoint x="-1320" y="647.5" as="targetPoint" />
          </mxGeometry>
        </mxCell>
        <mxCell id="6AneTU_jauQ3DX77gTmR-118" value="POC" style="shape=table;startSize=30;container=1;collapsible=1;childLayout=tableLayout;fixedRows=1;rowLines=0;fontStyle=1;align=center;resizeLast=1;" parent="1" vertex="1">
          <mxGeometry x="-680" y="550" width="220" height="120" as="geometry" />
        </mxCell>
        <mxCell id="6AneTU_jauQ3DX77gTmR-119" value="" style="shape=tableRow;horizontal=0;startSize=0;swimlaneHead=0;swimlaneBody=0;fillColor=none;collapsible=0;dropTarget=0;points=[[0,0.5],[1,0.5]];portConstraint=eastwest;top=0;left=0;right=0;bottom=1;" parent="6AneTU_jauQ3DX77gTmR-118" vertex="1">
          <mxGeometry y="30" width="220" height="30" as="geometry" />
        </mxCell>
        <mxCell id="6AneTU_jauQ3DX77gTmR-120" value="PK" style="shape=partialRectangle;connectable=0;fillColor=none;top=0;left=0;bottom=0;right=0;fontStyle=1;overflow=hidden;" parent="6AneTU_jauQ3DX77gTmR-119" vertex="1">
          <mxGeometry width="30" height="30" as="geometry">
            <mxRectangle width="30" height="30" as="alternateBounds" />
          </mxGeometry>
        </mxCell>
        <mxCell id="6AneTU_jauQ3DX77gTmR-121" value="Mã định danh" style="shape=partialRectangle;connectable=0;fillColor=none;top=0;left=0;bottom=0;right=0;align=left;spacingLeft=6;fontStyle=5;overflow=hidden;" parent="6AneTU_jauQ3DX77gTmR-119" vertex="1">
          <mxGeometry x="30" width="190" height="30" as="geometry">
            <mxRectangle width="190" height="30" as="alternateBounds" />
          </mxGeometry>
        </mxCell>
        <mxCell id="6AneTU_jauQ3DX77gTmR-122" value="" style="shape=tableRow;horizontal=0;startSize=0;swimlaneHead=0;swimlaneBody=0;fillColor=none;collapsible=0;dropTarget=0;points=[[0,0.5],[1,0.5]];portConstraint=eastwest;top=0;left=0;right=0;bottom=0;" parent="6AneTU_jauQ3DX77gTmR-118" vertex="1">
          <mxGeometry y="60" width="220" height="30" as="geometry" />
        </mxCell>
        <mxCell id="6AneTU_jauQ3DX77gTmR-123" value="" style="shape=partialRectangle;connectable=0;fillColor=none;top=0;left=0;bottom=0;right=0;editable=1;overflow=hidden;" parent="6AneTU_jauQ3DX77gTmR-122" vertex="1">
          <mxGeometry width="30" height="30" as="geometry">
            <mxRectangle width="30" height="30" as="alternateBounds" />
          </mxGeometry>
        </mxCell>
        <mxCell id="6AneTU_jauQ3DX77gTmR-124" value="Tên khách" style="shape=partialRectangle;connectable=0;fillColor=none;top=0;left=0;bottom=0;right=0;align=left;spacingLeft=6;overflow=hidden;" parent="6AneTU_jauQ3DX77gTmR-122" vertex="1">
          <mxGeometry x="30" width="190" height="30" as="geometry">
            <mxRectangle width="190" height="30" as="alternateBounds" />
          </mxGeometry>
        </mxCell>
        <mxCell id="6AneTU_jauQ3DX77gTmR-125" value="" style="shape=tableRow;horizontal=0;startSize=0;swimlaneHead=0;swimlaneBody=0;fillColor=none;collapsible=0;dropTarget=0;points=[[0,0.5],[1,0.5]];portConstraint=eastwest;top=0;left=0;right=0;bottom=0;" parent="6AneTU_jauQ3DX77gTmR-118" vertex="1">
          <mxGeometry y="90" width="220" height="30" as="geometry" />
        </mxCell>
        <mxCell id="6AneTU_jauQ3DX77gTmR-126" value="" style="shape=partialRectangle;connectable=0;fillColor=none;top=0;left=0;bottom=0;right=0;editable=1;overflow=hidden;" parent="6AneTU_jauQ3DX77gTmR-125" vertex="1">
          <mxGeometry width="30" height="30" as="geometry">
            <mxRectangle width="30" height="30" as="alternateBounds" />
          </mxGeometry>
        </mxCell>
        <mxCell id="6AneTU_jauQ3DX77gTmR-127" value="Ghi chú" style="shape=partialRectangle;connectable=0;fillColor=none;top=0;left=0;bottom=0;right=0;align=left;spacingLeft=6;overflow=hidden;" parent="6AneTU_jauQ3DX77gTmR-125" vertex="1">
          <mxGeometry x="30" width="190" height="30" as="geometry">
            <mxRectangle width="190" height="30" as="alternateBounds" />
          </mxGeometry>
        </mxCell>
        <mxCell id="6AneTU_jauQ3DX77gTmR-135" value="Checkin" style="shape=table;startSize=30;container=1;collapsible=1;childLayout=tableLayout;fixedRows=1;rowLines=0;fontStyle=1;align=center;resizeLast=1;" parent="1" vertex="1">
          <mxGeometry x="-1000" y="427.5" width="180" height="160" as="geometry" />
        </mxCell>
        <mxCell id="6AneTU_jauQ3DX77gTmR-136" value="" style="shape=tableRow;horizontal=0;startSize=0;swimlaneHead=0;swimlaneBody=0;fillColor=none;collapsible=0;dropTarget=0;points=[[0,0.5],[1,0.5]];portConstraint=eastwest;top=0;left=0;right=0;bottom=0;" parent="6AneTU_jauQ3DX77gTmR-135" vertex="1">
          <mxGeometry y="30" width="180" height="30" as="geometry" />
        </mxCell>
        <mxCell id="6AneTU_jauQ3DX77gTmR-137" value="PK,FK1" style="shape=partialRectangle;connectable=0;fillColor=none;top=0;left=0;bottom=0;right=0;fontStyle=1;overflow=hidden;" parent="6AneTU_jauQ3DX77gTmR-136" vertex="1">
          <mxGeometry width="60" height="30" as="geometry">
            <mxRectangle width="60" height="30" as="alternateBounds" />
          </mxGeometry>
        </mxCell>
        <mxCell id="6AneTU_jauQ3DX77gTmR-138" value="Mã POC" style="shape=partialRectangle;connectable=0;fillColor=none;top=0;left=0;bottom=0;right=0;align=left;spacingLeft=6;fontStyle=5;overflow=hidden;" parent="6AneTU_jauQ3DX77gTmR-136" vertex="1">
          <mxGeometry x="60" width="120" height="30" as="geometry">
            <mxRectangle width="120" height="30" as="alternateBounds" />
          </mxGeometry>
        </mxCell>
        <mxCell id="6AneTU_jauQ3DX77gTmR-139" value="" style="shape=tableRow;horizontal=0;startSize=0;swimlaneHead=0;swimlaneBody=0;fillColor=none;collapsible=0;dropTarget=0;points=[[0,0.5],[1,0.5]];portConstraint=eastwest;top=0;left=0;right=0;bottom=1;" parent="6AneTU_jauQ3DX77gTmR-135" vertex="1">
          <mxGeometry y="60" width="180" height="30" as="geometry" />
        </mxCell>
        <mxCell id="6AneTU_jauQ3DX77gTmR-140" value="PK,FK2" style="shape=partialRectangle;connectable=0;fillColor=none;top=0;left=0;bottom=0;right=0;fontStyle=1;overflow=hidden;" parent="6AneTU_jauQ3DX77gTmR-139" vertex="1">
          <mxGeometry width="60" height="30" as="geometry">
            <mxRectangle width="60" height="30" as="alternateBounds" />
          </mxGeometry>
        </mxCell>
        <mxCell id="6AneTU_jauQ3DX77gTmR-141" value="Mã định danh" style="shape=partialRectangle;connectable=0;fillColor=none;top=0;left=0;bottom=0;right=0;align=left;spacingLeft=6;fontStyle=5;overflow=hidden;" parent="6AneTU_jauQ3DX77gTmR-139" vertex="1">
          <mxGeometry x="60" width="120" height="30" as="geometry">
            <mxRectangle width="120" height="30" as="alternateBounds" />
          </mxGeometry>
        </mxCell>
        <mxCell id="6AneTU_jauQ3DX77gTmR-142" value="" style="shape=tableRow;horizontal=0;startSize=0;swimlaneHead=0;swimlaneBody=0;fillColor=none;collapsible=0;dropTarget=0;points=[[0,0.5],[1,0.5]];portConstraint=eastwest;top=0;left=0;right=0;bottom=0;" parent="6AneTU_jauQ3DX77gTmR-135" vertex="1">
          <mxGeometry y="90" width="180" height="30" as="geometry" />
        </mxCell>
        <mxCell id="6AneTU_jauQ3DX77gTmR-143" value="" style="shape=partialRectangle;connectable=0;fillColor=none;top=0;left=0;bottom=0;right=0;editable=1;overflow=hidden;" parent="6AneTU_jauQ3DX77gTmR-142" vertex="1">
          <mxGeometry width="60" height="30" as="geometry">
            <mxRectangle width="60" height="30" as="alternateBounds" />
          </mxGeometry>
        </mxCell>
        <mxCell id="6AneTU_jauQ3DX77gTmR-144" value="Thời gian check in" style="shape=partialRectangle;connectable=0;fillColor=none;top=0;left=0;bottom=0;right=0;align=left;spacingLeft=6;overflow=hidden;" parent="6AneTU_jauQ3DX77gTmR-142" vertex="1">
          <mxGeometry x="60" width="120" height="30" as="geometry">
            <mxRectangle width="120" height="30" as="alternateBounds" />
          </mxGeometry>
        </mxCell>
        <mxCell id="6AneTU_jauQ3DX77gTmR-145" value="" style="shape=tableRow;horizontal=0;startSize=0;swimlaneHead=0;swimlaneBody=0;fillColor=none;collapsible=0;dropTarget=0;points=[[0,0.5],[1,0.5]];portConstraint=eastwest;top=0;left=0;right=0;bottom=0;" parent="6AneTU_jauQ3DX77gTmR-135" vertex="1">
          <mxGeometry y="120" width="180" height="30" as="geometry" />
        </mxCell>
        <mxCell id="6AneTU_jauQ3DX77gTmR-146" value="" style="shape=partialRectangle;connectable=0;fillColor=none;top=0;left=0;bottom=0;right=0;editable=1;overflow=hidden;" parent="6AneTU_jauQ3DX77gTmR-145" vertex="1">
          <mxGeometry width="60" height="30" as="geometry">
            <mxRectangle width="60" height="30" as="alternateBounds" />
          </mxGeometry>
        </mxCell>
        <mxCell id="6AneTU_jauQ3DX77gTmR-147" value="Ghi chú" style="shape=partialRectangle;connectable=0;fillColor=none;top=0;left=0;bottom=0;right=0;align=left;spacingLeft=6;overflow=hidden;" parent="6AneTU_jauQ3DX77gTmR-145" vertex="1">
          <mxGeometry x="60" width="120" height="30" as="geometry">
            <mxRectangle width="120" height="30" as="alternateBounds" />
          </mxGeometry>
        </mxCell>
        <mxCell id="d3_dFsbuMu5W4wW5MxRZ-1" value="" style="shape=partialRectangle;connectable=0;fillColor=none;top=0;left=0;bottom=0;right=0;align=left;spacingLeft=6;overflow=hidden;" parent="1" vertex="1">
          <mxGeometry x="-1500" y="320" width="190" height="30" as="geometry">
            <mxRectangle width="190" height="30" as="alternateBounds" />
          </mxGeometry>
        </mxCell>
        <mxCell id="KngkDy6pTM3wEkXzqMG2-1" value="" style="edgeStyle=entityRelationEdgeStyle;fontSize=12;html=1;endArrow=ERoneToMany;startArrow=ERmandOne;rounded=0;" parent="1" source="EWfTxcbi-qjkXGXBeAcr-1" target="6AneTU_jauQ3DX77gTmR-31" edge="1">
          <mxGeometry width="100" height="100" relative="1" as="geometry">
            <mxPoint x="-1100" y="330" as="sourcePoint" />
            <mxPoint x="-1000" y="230" as="targetPoint" />
          </mxGeometry>
        </mxCell>
        <mxCell id="KngkDy6pTM3wEkXzqMG2-2" value="" style="edgeStyle=entityRelationEdgeStyle;fontSize=12;html=1;endArrow=ERmandOne;startArrow=ERmandOne;rounded=0;" parent="1" source="6AneTU_jauQ3DX77gTmR-31" target="6AneTU_jauQ3DX77gTmR-47" edge="1">
          <mxGeometry width="100" height="100" relative="1" as="geometry">
            <mxPoint x="-1100" y="330" as="sourcePoint" />
            <mxPoint x="-1000" y="230" as="targetPoint" />
          </mxGeometry>
        </mxCell>
        <mxCell id="KngkDy6pTM3wEkXzqMG2-3" value="" style="fontSize=12;html=1;endArrow=ERoneToMany;startArrow=ERmandOne;rounded=0;" parent="1" target="6AneTU_jauQ3DX77gTmR-72" edge="1">
          <mxGeometry width="100" height="100" relative="1" as="geometry">
            <mxPoint x="-1420" y="350" as="sourcePoint" />
            <mxPoint x="-1000" y="430" as="targetPoint" />
            <Array as="points">
              <mxPoint x="-1420" y="400" />
            </Array>
          </mxGeometry>
        </mxCell>
        <mxCell id="KngkDy6pTM3wEkXzqMG2-4" value="" style="edgeStyle=entityRelationEdgeStyle;fontSize=12;html=1;endArrow=ERoneToMany;startArrow=ERmandOne;rounded=0;" parent="1" source="6AneTU_jauQ3DX77gTmR-72" target="6AneTU_jauQ3DX77gTmR-95" edge="1">
          <mxGeometry width="100" height="100" relative="1" as="geometry">
            <mxPoint x="-1100" y="600" as="sourcePoint" />
            <mxPoint x="-1460" y="690" as="targetPoint" />
          </mxGeometry>
        </mxCell>
        <mxCell id="KngkDy6pTM3wEkXzqMG2-5" value="" style="edgeStyle=entityRelationEdgeStyle;fontSize=12;html=1;endArrow=ERoneToMany;startArrow=ERmandOne;rounded=0;" parent="1" source="6AneTU_jauQ3DX77gTmR-95" target="6AneTU_jauQ3DX77gTmR-135" edge="1">
          <mxGeometry width="100" height="100" relative="1" as="geometry">
            <mxPoint x="-850" y="600" as="sourcePoint" />
            <mxPoint x="-750" y="500" as="targetPoint" />
          </mxGeometry>
        </mxCell>
        <mxCell id="KngkDy6pTM3wEkXzqMG2-6" value="" style="edgeStyle=entityRelationEdgeStyle;fontSize=12;html=1;endArrow=ERoneToMany;startArrow=ERmandOne;rounded=0;" parent="1" source="6AneTU_jauQ3DX77gTmR-118" target="6AneTU_jauQ3DX77gTmR-135" edge="1">
          <mxGeometry width="100" height="100" relative="1" as="geometry">
            <mxPoint x="-850" y="600" as="sourcePoint" />
            <mxPoint x="-750" y="500" as="targetPoint" />
          </mxGeometry>
        </mxCell>
        <mxCell id="KngkDy6pTM3wEkXzqMG2-7" value="" style="fontSize=12;html=1;endArrow=ERoneToMany;startArrow=ERmandOne;rounded=0;entryX=0.5;entryY=0;entryDx=0;entryDy=0;exitX=0;exitY=0.5;exitDx=0;exitDy=0;" parent="1" source="6AneTU_jauQ3DX77gTmR-57" target="6AneTU_jauQ3DX77gTmR-95" edge="1">
          <mxGeometry width="100" height="100" relative="1" as="geometry">
            <mxPoint x="-1030" y="530" as="sourcePoint" />
            <mxPoint x="-1240" y="490" as="targetPoint" />
            <Array as="points">
              <mxPoint x="-970" y="215" />
              <mxPoint x="-1240" y="470" />
            </Array>
          </mxGeometry>
        </mxCell>
      </root>
    </mxGraphModel>
  </diagram>
  <diagram id="SqORDdJdLOsbm91quTAn" name="Page-2">
    <mxGraphModel dx="1258" dy="842" grid="1" gridSize="10" guides="1" tooltips="1" connect="1" arrows="1" fold="1" page="1" pageScale="1" pageWidth="850" pageHeight="1100" math="0" shadow="0">
      <root>
        <mxCell id="0" />
        <mxCell id="1" parent="0" />
      </root>
    </mxGraphModel>
  </diagram>
</mxfile>
